<?xml version="1.0" encoding="utf-8"?>
<!-- Generator: Adobe Illustrator 25.2.3, SVG Export Plug-In . SVG Version: 6.00 Build 0)  -->
<svg version="1.1" xmlns="http://www.w3.org/2000/svg" xmlns:xlink="http://www.w3.org/1999/xlink" x="0px" y="0px"
	 viewBox="0 0 1080 1080" style="enable-background:new 0 0 1080 1080;" xml:space="preserve">
<style type="text/css">
	.st0{fill:url(#SVGID_1_);stroke:#28BC2E;stroke-width:3;stroke-miterlimit:10;}
	.st1{fill:url(#SVGID_2_);}
	.st2{fill:url(#SVGID_3_);stroke:url(#SVGID_4_);stroke-miterlimit:10;}
	.st3{fill:url(#SVGID_5_);}
	.st4{fill:url(#SVGID_6_);}
	.st5{fill:url(#SVGID_7_);}
</style>
<g id="Layer_3">
</g>
<g id="Layer_1">
</g>
<g id="Layer_2">
	<g>
		
			<radialGradient id="SVGID_1_" cx="537.9785" cy="552.1694" r="310.9024" gradientTransform="matrix(1.7125 0 0 1.6662 -381.7274 -379.9773)" gradientUnits="userSpaceOnUse">
			<stop  offset="2.512563e-03" style="stop-color:#241F1F"/>
			<stop  offset="0.0767" style="stop-color:#2E2019"/>
			<stop  offset="0.2228" style="stop-color:#392011"/>
			<stop  offset="0.4286" style="stop-color:#40210C"/>
			<stop  offset="1" style="stop-color:#42210B"/>
		</radialGradient>
		<path class="st0" d="M1045.03,702.63c-92.27,271.51-393.37,418.8-672.53,329S-58.17,648.93,34.1,377.42s393.37-418.8,672.53-329
			S1137.29,431.12,1045.03,702.63z"/>
		<g>
			<linearGradient id="SVGID_2_" gradientUnits="userSpaceOnUse" x1="143.5714" y1="507.987" x2="542.5853" y2="507.987">
				<stop  offset="5.025126e-03" style="stop-color:#006837"/>
				<stop  offset="0.1296" style="stop-color:#19893F"/>
				<stop  offset="0.2709" style="stop-color:#30A947"/>
				<stop  offset="0.3492" style="stop-color:#39B54A"/>
				<stop  offset="0.3925" style="stop-color:#41B749"/>
				<stop  offset="0.626" style="stop-color:#68C046"/>
				<stop  offset="0.8123" style="stop-color:#80C544"/>
				<stop  offset="0.9271" style="stop-color:#89C743"/>
				<stop  offset="1" style="stop-color:#8CC63F"/>
			</linearGradient>
			<path class="st1" d="M188.95,829.06c40.58,0.73,85.88,1.33,135.29,1.67c101.44,0.68,117.17-0.49,137-11.66
				c55.2-31.1,77.92-103.52,71.93-153.29c-3.22-26.73-15.52-53.58-22.26-63.31c-5.44-7.86-23.38-27.74-23.98-28.32
				c0,0-20.19-20.5-43.26-35.07c-10.52-6.64-22.38-13-48.63-22.53c-22.01-7.99-39.24-11.72-45.97-13.21
				c-68.44-15.23-102.66-22.85-125.44-40.21c-34.84-26.55-56.58-82.35-40.67-129.74c22.36-66.63,107.55-82.11,123.3-84.97
				c7.82-1.42,27.6-1.41,66.79-1.67c39.57-0.26,72.1-0.15,94.19,0c25.12-20.55,50.23-41.1,75.35-61.65l-201.45,0.01
				c-93.74,12.3-158.11,71.38-159.89,129.95c-1.49,49.08,41.25,88.07,45.25,91.63c33.78,30.01,79.85,37.6,114.64,45.26
				c30.38,6.69,60.98,9.98,108.12,27.23c17.94,6.56,26.9,9.84,32.54,13.33c55.57,34.38,62.09,119.9,51.38,173.28
				c-3.73,18.59-7.61,40.96-25.69,61.65c-19.52,22.34-44.12,30.2-62.51,35.82c-26.03,7.96-39.65,6.77-116.45,6.66
				c-64.61-0.09-66.48,0.73-114.74,0c-28.69-0.43-52.76-1.1-70.21-1.67C158.7,788.52,173.83,808.79,188.95,829.06z"/>
			<linearGradient id="SVGID_3_" gradientUnits="userSpaceOnUse" x1="656.4669" y1="765.7479" x2="656.4669" y2="765.7479">
				<stop  offset="0" style="stop-color:#00FFFF"/>
				<stop  offset="1" style="stop-color:#000000"/>
			</linearGradient>
			<linearGradient id="SVGID_4_" gradientUnits="userSpaceOnUse" x1="656.4669" y1="765.7479" x2="656.4669" y2="765.7479">
				<stop  offset="0" style="stop-color:#00FFFF"/>
				<stop  offset="1" style="stop-color:#000000"/>
			</linearGradient>
			<path class="st2" d="M656.47,765.75"/>
			<g id="XMLID_1_">
				<linearGradient id="SVGID_5_" gradientUnits="userSpaceOnUse" x1="591.9078" y1="268.7632" x2="935.5485" y2="268.7632">
					<stop  offset="0" style="stop-color:#006837"/>
					<stop  offset="0.1584" style="stop-color:#249843"/>
					<stop  offset="0.2688" style="stop-color:#39B54A"/>
					<stop  offset="0.317" style="stop-color:#51BA47"/>
					<stop  offset="0.3768" style="stop-color:#67BE44"/>
					<stop  offset="0.4474" style="stop-color:#78C242"/>
					<stop  offset="0.5348" style="stop-color:#83C440"/>
					<stop  offset="0.6573" style="stop-color:#8AC63F"/>
					<stop  offset="0.9975" style="stop-color:#8CC63F"/>
				</linearGradient>
				<path class="st3" d="M863.98,217.75c13.68,8.46,72.8,45.04,71.55,97.65c-0.34,14.48-5.17,27.28-12.18,38.5
					c-20.52-36.39-64.77-57.2-74.34-61.68c-15.28-7.18-37.49-14.86-161.01-16.64c-36.97-0.52-67.66-0.3-88.81-0.02
					c-0.45-49.82-1.25-90.97-2.72-90.92c22.35-1,54.05-1.68,92.01,0C776.06,188.51,820.74,190.99,863.98,217.75z"/>
				<linearGradient id="SVGID_6_" gradientUnits="userSpaceOnUse" x1="530.3286" y1="516.6571" x2="933.8361" y2="516.6571">
					<stop  offset="0" style="stop-color:#006837"/>
					<stop  offset="0.1584" style="stop-color:#249843"/>
					<stop  offset="0.2688" style="stop-color:#39B54A"/>
					<stop  offset="0.317" style="stop-color:#51BA47"/>
					<stop  offset="0.3768" style="stop-color:#67BE44"/>
					<stop  offset="0.4474" style="stop-color:#78C242"/>
					<stop  offset="0.5348" style="stop-color:#83C440"/>
					<stop  offset="0.6573" style="stop-color:#8AC63F"/>
					<stop  offset="0.9975" style="stop-color:#8CC63F"/>
				</linearGradient>
				<path class="st4" d="M599.19,275.56c-0.34,0-0.67,0.02-1.01,0.02c0,1,0.02,2,0.02,3c-18.53-31.16-37.08-62.33-55.62-93.49
					c-2,128.91-3.99,257.82-5.99,386.73c-1.42,92.14-2.86,184.26-4.28,276.4c21.13,0,42.25,0,63.36,0
					c3.05-106.07,4.81-214.32,5.1-324.73c22.54,0.13,48.41-0.27,77.08-1.67c41.15-2,73.19-3.68,113.54-11.65
					c37.8-7.45,56.68-11.18,74.58-21.63c5.63-3.28,70.66-42.45,67.78-99.82c-0.65-12.86-4.56-24.48-10.39-34.82
					c-11.27,18.14-28.14,32.19-40.64,42.6c-54.39,45.3-119.53,50.87-149.93,51.3c-47.03,0.2-80.25,0.35-101.71,0.45
					c-17.81,0.1-27.52,0.17-30.33,0.2c-0.14-51.12-0.62-101.75-1.4-151.92c0-0.32,0-0.63,0-0.95
					C599.3,288.81,599.25,282.11,599.19,275.56z"/>
			</g>
			<linearGradient id="SVGID_7_" gradientUnits="userSpaceOnUse" x1="599.886" y1="686.6901" x2="931.3241" y2="686.6901">
				<stop  offset="5.025126e-03" style="stop-color:#006837"/>
				<stop  offset="0.3844" style="stop-color:#39B54A"/>
				<stop  offset="1" style="stop-color:#8CC63F"/>
			</linearGradient>
			<path class="st5" d="M599.89,523.49c20.69,29.33,43.73,59.42,69.42,89.8c86.98,102.86,179.49,179.72,262.01,236.59
				c-23.87-0.28-47.75-0.56-71.62-0.83c-52.16-35.62-112.07-83.2-171.55-145.79c-34.79-36.6-63.94-72.56-88.26-106.05
				C599.89,572.64,599.89,548.07,599.89,523.49z"/>
		</g>
	</g>
</g>
</svg>
